# xmcd CD database file
#
# Track frame offsets:
#	150
#	27385
#	43359
#	75563
#	95560
#	115553
#	126853
#	142424
#	156650
#	173639
#	185360
#
# Disc length: 2619 seconds
#
# Revision: 0
# Processed by: cddbd v1.5.2PL0 Copyright (c) Steve Scherf et al.
# Submitted via: CDex 1.70beta2
#
DISCID=9a0a390b
DTITLE=Симфо-джаз - Легендарные мелодии XX века [CD II)
DYEAR=2008
DGENRE=Jazz
TTITLE0=Вальс Цветов (П. Чайковский)
TTITLE1=Снежинки (А. Цфасман)
TTITLE2=На тройке (П. Чайковский)
TTITLE3=Thanky (D. Brubeck)
TTITLE4=Peter Gun (H. Manchini)
TTITLE5=Something in the way (G. Harrison)
TTITLE6=Hit the road Jack (P. Mayfield)
TTITLE7=You can leave your hat on (R. Newman)
TTITLE8=Kiss (Prince)
TTITLE9=Sex Bomb (T. Mousee - E. Rennalls)
TTITLE10=Think (T. White - A. Franklin)
EXTD=YEAR: 2008
EXTT0=
EXTT1=
EXTT2=
EXTT3=
EXTT4=
EXTT5=
EXTT6=
EXTT7=
EXTT8=
EXTT9=
EXTT10=
PLAYORDER=
